<svg id="Layer_1" enable-background="new 0 0 512.001 512.001" height="512" viewBox="0 0 512.001 512.001" width="512" xmlns="http://www.w3.org/2000/svg"><g><g clip-rule="evenodd" fill-rule="evenodd"><path d="m126 180c79.658 0 149.384-23.332 170.001-56.885 10.915 33.553 47.828 56.885 89.999 56.885h5c5.616 0 10.814 1.877 15 5.034v-25.034c0-82.5-67.5-150-150-150s-150 67.5-150 150v25.034c4.186-3.157 9.384-5.033 15-5.033h5z" fill="#c68a86"/><path d="m296.001 123.115c-20.616 33.553-90.342 56.885-170.001 56.885h-5c-5.616 0-10.814 1.877-15 5.033-6.063 4.573-10 11.832-10 19.967 0 13.75 11.25 25 25 25h5.384c3.235 42.015 26.672 78.603 60.547 99.999 9.751 6.159 20.367 11.059 31.616 14.468 11.872 3.597 24.447 5.533 37.453 5.533s25.581-1.936 37.453-5.533c11.248-3.408 21.865-8.309 31.616-14.468 33.875-21.396 57.312-57.984 60.547-99.999h5.384c13.75 0 25-11.25 25-25 0-8.135-3.937-15.394-10-19.967-4.186-3.157-9.384-5.033-15-5.033h-5c-42.171 0-79.084-23.332-89.999-56.885z" fill="#ffdcd5"/><path d="m186.932 330h-40.932c-11 0-20 9-20 20v57.015c8.526-11.864 18.631-22.526 30-31.673 12.041-9.688 25.5-17.675 40.003-23.59 7.268-2.964 14.798-5.408 22.544-7.284-11.248-3.409-21.864-8.309-31.615-14.468z" fill="#8aa7bd"/><path d="m325.069 330c-9.751 6.159-20.368 11.059-31.616 14.468 7.746 1.876 15.276 4.319 22.544 7.284 14.504 5.915 27.963 13.902 40.003 23.59 11.369 9.147 21.474 19.809 30 31.673v-57.015c0-11-9-20-20-20z" fill="#8aa7bd"/><path d="m315.997 351.751c-7.268-2.964-14.798-5.408-22.544-7.284-11.872 3.597-24.447 5.533-37.453 5.533s-25.581-1.936-37.453-5.533c-7.745 1.876-15.276 4.319-22.543 7.284l23.947 41.197 7.011-5.965 29.039-24.708 29.039 24.708 7.011 5.965z" fill="#fff"/><path d="m285.04 386.983-29.039-24.708-29.039 24.708 15.074 15.074c7.681 7.681 20.25 7.68 27.931 0z" fill="#60a4ff"/><path d="m229.61 502.002 12.425-99.945-15.074-15.074-7.01 5.965-23.947-41.196v150.25z" fill="#fff"/><path d="m315.997 351.752v150.25h40.001l.002-126.66c-12.04-9.688-25.499-17.676-40.003-23.59z" fill="#6d91ac"/><path d="m356.001 375.341-.002 126.66h60.002v-2.001c0-34.606-11.136-66.737-30-92.986-8.527-11.863-18.631-22.526-30-31.673z" fill="#fff"/><path d="m196.004 502.002v-150.25c-14.504 5.915-27.962 13.902-40.001 23.593v126.658h40.001z" fill="#6d91ac"/><path d="m156.003 502.002-.002-126.66c-11.369 9.147-21.474 19.81-30 31.673-18.865 26.249-30 58.379-30 92.985v2.002z" fill="#fff"/><path d="m282.392 502.002-12.426-99.945 15.074-15.074 7.011 5.965 23.946-41.196v150.25z" fill="#fff"/><path d="m282.392 502.002-12.426-99.945c-7.681 7.68-20.25 7.681-27.931 0l-12.426 99.945z" fill="#60a4ff"/></g><g><path d="m396 403.875v-53.875c0-16.542-13.458-30-30-30h-12.354c21.555-21.025 36.466-48.914 40.946-80.182 17.618-1.804 31.408-16.731 31.408-34.818 0-9.513-3.82-18.147-10-24.462v-20.538c0-42.571-16.688-82.705-46.991-113.008-30.303-30.304-70.437-46.992-113.009-46.992s-82.706 16.688-113.009 46.991-46.991 70.437-46.991 113.009v20.539c-6.18 6.315-10 14.949-10 24.462 0 18.087 13.79 33.014 31.408 34.817 4.48 31.268 19.391 59.157 40.946 80.182h-12.354c-16.542 0-30 13.458-30 30v53.877c-19.413 28.208-30 61.9-30 96.123v2.001c0 5.523 4.478 10 10 10h320.001c5.522 0 10-4.477 10-10v-2.001c0-34.223-10.587-67.918-30.001-96.125zm-30-63.875c5.514 0 10 4.486 10 10v29.894c-15.585-15.54-34.047-27.974-54.174-36.519 2.006-1.079 3.986-2.202 5.934-3.375zm-73.884 152.001-11.581-86.371 5.053-5.053c1.82 1.541 4.114 2.37 6.463 2.37.562 0 1.126-.047 1.688-.144 2.92-.5 5.468-2.27 6.957-4.831l5.302-9.121v103.148h-13.882zm-86.112 0v-103.147l5.301 9.119c1.489 2.562 4.037 4.331 6.957 4.831 2.917.498 5.898-.318 8.151-2.227l5.095 5.094-10.733 86.329h-14.771zm-40.002-112.037c6.28-4.697 12.963-8.922 20.002-12.624v124.661h-20.002zm127.565-25.152c2.626.682 5.219 1.432 7.78 2.245l-11.93 20.522-21.289-18.115c8.714-.763 17.221-2.336 25.439-4.652zm-30.672 40.174c-1.825 1.826-4.274 2.831-6.894 2.831s-5.068-1.005-6.895-2.832l-7.41-7.41 14.304-12.17 14.304 12.171zm-40.312-17.407-11.929-20.522c2.561-.812 5.153-1.563 7.779-2.245 8.218 2.316 16.726 3.889 25.44 4.653zm27.639 39.682c1.883.367 3.816.556 5.779.556 2.009 0 3.986-.198 5.911-.582l10.025 74.766h-31.007zm75.775-49.918c7.038 3.702 13.721 7.928 20.001 12.626v112.032h-20.001zm-69.997-347.343c77.196 0 140 62.804 140 140v10.363c-1.634-.235-3.302-.363-5-.363h-5c-37.818 0-70.917-20.552-80.489-49.979-1.206-3.708-4.458-6.377-8.33-6.837-3.869-.458-7.658 1.372-9.7 4.695-18.557 30.201-86.469 52.121-161.481 52.121h-5c-1.698 0-3.366.128-5 .363v-10.363c0-3.364.127-6.698.361-10.003 14.941-.021 31.455-.213 48.34-2 5.492-.581 9.474-5.504 8.893-10.997s-5.525-9.478-10.996-8.892c-14.841 1.57-29.686 1.833-43.348 1.879 13.776-62.821 69.854-109.987 136.75-109.987zm-119.645 209.233c-.401-5.21-4.746-9.232-9.971-9.232h-5.384c-8.271 0-15-6.729-15-15s6.729-15 15-15h5c73.416 0 137.403-18.871 167.562-48.186 17.151 29.021 52.803 48.185 92.438 48.185h5c8.271 0 15 6.729 15 15s-6.729 15-15 15h-5.384c-5.225 0-9.569 4.022-9.971 9.232-4.781 62.114-57.336 110.768-119.645 110.768s-114.863-48.654-119.645-110.767zm9.645 110.767h38.24c1.948 1.173 3.928 2.295 5.934 3.375-20.127 8.546-38.589 20.98-54.174 36.52v-29.895c0-5.514 4.487-10 10-10zm.002 57.941v94.061h-39.792c1.887-35.948 16.436-68.928 39.792-94.061zm219.996 94.06v-94.052c23.354 25.136 37.904 58.115 39.793 94.052z"/><path d="m296.002 240c5.522 0 10-4.477 10-10v-.007c0-5.523-4.478-9.997-10-9.997s-10 4.481-10 10.004 4.478 10 10 10z"/><path d="m215.999 240c5.522 0 10-4.477 10-10v-.007c0-5.523-4.478-9.997-10-9.997s-10 4.481-10 10.004 4.478 10 10 10z"/><path d="m223.65 272.944c8.643 8.641 20.131 13.4 32.351 13.4s23.708-4.759 32.351-13.4c3.905-3.905 3.905-10.237 0-14.142-3.904-3.905-10.234-3.906-14.143 0-4.864 4.864-11.33 7.542-18.208 7.542s-13.344-2.679-18.208-7.542c-3.906-3.905-10.238-3.905-14.143 0-3.906 3.906-3.906 10.237 0 14.142z"/><path d="m207.931 139.982c5.522 0 10-4.477 10-10s-4.478-10-10-10h-.008c-5.522 0-9.996 4.477-9.996 10s4.481 10 10.004 10z"/></g></g></svg>